<?xml version="1.0" encoding="utf-8"?>
<!-- Generator: Adobe Illustrator 19.0.0, SVG Export Plug-In . SVG Version: 6.00 Build 0)  -->
<svg version="1.1" id="Layer_1" xmlns="http://www.w3.org/2000/svg" xmlns:xlink="http://www.w3.org/1999/xlink" x="0px" y="0px"
	 viewBox="1090 -61.5 667.1 358.2" style="enable-background:new 1090 -61.5 667.1 358.2;" xml:space="preserve">
<g>
	<g>
		<path d="M1657.2,122.1c-5.5,174.6-180.8,174.6-180.8,174.6h-166.8V-61.5h159c133.7,3.4,172,84,184.3,135.7
			c0.2,0.8,0.3,1.5,0.4,2.3l2.5,16.4c0,0.2-0.1,0.4-0.3,0.5c-0.1,0-0.2,0-0.3,0c-32.7-17.5-87,1.7-87,1.7v-2.2
			c-5.4-29-25.7-73.3-99.6-74.2H1396v197.9h72.5c0,0,73,3.7,95.1-61.9c0.6-1.7,0.2-3.6-1-4.9c-4-4.7-15.2-14.6-38.1-14.6
			c-0.2,0-0.4-0.1-0.4-0.3c0-0.1,0.1-0.3,0.2-0.3c6-3.7,36.3-21.5,81.6-29.5c0,0,34.2-7.2,49.5,13.1c0.7,0.9,1.2,1.8,1.5,2.9
			C1657.1,121.3,1657.1,121.7,1657.2,122.1L1657.2,122.1z"/>
		<path d="M1736.8,116.6c6.7-3.1,14.1-6.6,18.8-10c0.5-0.4,1-0.9,1.2-1.5c0.5-1,0.5-2.5-2.3-3.1c-0.5-0.1-1-0.1-1.4,0
			c-4.8,1.1-9.7,1.4-14.5,1.1c-2.9-0.3-5.7-1.5-7.9-3.4c-5.3-4.5-18-13.4-30.1-7.1c0,0-16.7,9.3-45,8.3c-0.2,0-0.3,0.2-0.3,0.3
			c0,0.1,0,0.2,0.1,0.3c3.6,2.8,17.6,14,17.6,22.4c0,0.3,0,0.7-0.1,1c-0.2,1.7-0.5,3.3-0.9,4.9c-0.1,0.4,0.1,0.7,0.5,0.8
			c0.1,0,0.1,0,0.2,0c1.8-0.1,6.6-1.3,17-9.2c0.4-0.3,0.9-0.3,1.3-0.1c4.3,2.8,9.2,4.5,14.4,4.9c2-0.1,4-0.3,6-0.6
			c2.2-0.3,4.4-1,6.5-1.9c2.1-0.9,3.8-2.5,4.9-4.4c0.2-0.4,0.4-0.7,0.5-1.1c0-0.1,0.1-0.1,0.2-0.1c0.1,0,0.1,0.1,0.1,0.1
			c0,0.6,0,1.2-0.1,1.9c-0.1,0.5,0.3,1,0.8,1c0.1,0,0.3,0,0.4,0C1728.8,119.8,1732.9,118.3,1736.8,116.6L1736.8,116.6z
			 M1176.4,216.5h188v80H1090v-358h86.4V216.5z"/>
	</g>
</g>
</svg>
